<svg width="18" height="18" viewBox="0 0 18 18" fill="none" xmlns="http://www.w3.org/2000/svg">
<path fill-rule="evenodd" clip-rule="evenodd" d="M11.4207 12.6C10.2918 13.4775 8.87327 14.0001 7.33268 14.0001C3.65078 14.0001 0.666016 11.0153 0.666016 7.33342C0.666016 3.65152 3.65078 0.666748 7.33268 0.666748C11.0146 0.666748 13.9993 3.65152 13.9993 7.33342C13.9993 8.87401 13.4768 10.2925 12.5992 11.4215L17.0886 15.9108C17.414 16.2363 17.414 16.7639 17.0886 17.0893C16.7632 17.4148 16.2355 17.4148 15.9101 17.0893L11.4207 12.6ZM12.3327 7.33342C12.3327 10.0948 10.0941 12.3334 7.33268 12.3334C4.57126 12.3334 2.33268 10.0948 2.33268 7.33342C2.33268 4.57199 4.57126 2.33341 7.33268 2.33341C10.0941 2.33341 12.3327 4.57199 12.3327 7.33342Z" fill="#777E91"/>
</svg>
